<svg viewBox="0 0 152 24" xmlns="http://www.w3.org/2000/svg"><path d="M32.1 14.5c-.6 0-1.1.1-1.6.4s-.9.6-1.1 1.1c-.3.5-.4 1-.4 1.5 0 .8.3 1.5.9 2s1.3.8 2.2.8 1.6-.3 2.2-.8.8-1.2.8-2.1c0-.6-.1-1-.4-1.5-.3-.4-.6-.8-1.1-1s-1-.4-1.5-.4zm2.9-.7h1v5.8c0 1-.1 1.8-.3 2.2-.3.7-.7 1.2-1.4 1.6-.6.4-1.3.6-2.2.6-.7 0-1.3-.1-1.8-.3s-1-.4-1.3-.7-.6-.7-.9-1.3h1.1c.3.5.7.8 1.1 1.1.5.2 1 .4 1.7.4s1.2-.1 1.7-.4c.5-.2.8-.5 1-.9s.3-.9.3-1.8v-.4c-.4.5-.8.8-1.4 1-.5.2-1.1.4-1.7.4-.7 0-1.4-.2-2-.5s-1.1-.8-1.5-1.4-.4-1.1-.4-1.8.2-1.3.5-1.9c.4-.6.8-1.1 1.5-1.4.6-.3 1.3-.5 2-.5.6 0 1.1.1 1.6.3s1 .6 1.4 1.1v-1.2zm2-2.8h1v10.2h-1V11zm6 3.6c-.8 0-1.5.3-2.1.9s-.9 1.2-.9 2c0 .5.1 1 .4 1.5s.6.8 1.1 1.1c.5.2 1 .4 1.5.4.6 0 1.1-.1 1.5-.4.5-.3.8-.6 1.1-1.1s.4-1 .4-1.5c0-.8-.3-1.5-.9-2.1s-1.3-.8-2.1-.8zm0-1c1.2 0 2.2.4 2.9 1.2.7.7 1.1 1.6 1.1 2.6s-.4 1.9-1.1 2.7c-.8.8-1.7 1.2-2.9 1.2s-2.2-.4-2.9-1.2c-.8-.8-1.1-1.7-1.1-2.7s.4-1.9 1.1-2.6c.8-.8 1.7-1.2 2.9-1.2zm9 6.8c.6 0 1.1-.1 1.5-.4.5-.3.8-.6 1.1-1.1s.4-1 .4-1.5-.1-1-.4-1.5-.7-.8-1.1-1.1c-.5-.3-1-.4-1.5-.4s-1.1.1-1.5.4c-.5.3-.9.6-1.1 1.1-.3.4-.4.9-.4 1.5 0 .9.3 1.6.9 2.1.5.7 1.2.9 2.1.9zm-4 .8V11h1v4.1c.4-.5.9-.9 1.4-1.1s1.1-.4 1.7-.4c1.1 0 2 .4 2.8 1.1.8.8 1.2 1.7 1.2 2.7 0 1.1-.4 2-1.2 2.7-.8.8-1.7 1.1-2.8 1.1-.6 0-1.2-.1-1.7-.4s-1-.6-1.4-1.2V21l-1 .2zm13-6.7c-.6 0-1.1.1-1.5.4s-.8.6-1.1 1.1-.4 1-.4 1.5.1 1 .4 1.5.7.8 1.1 1.1c.5.3 1 .4 1.5.4s1.1-.1 1.5-.4c.5-.3.9-.6 1.1-1.1.3-.4.4-.9.4-1.5 0-.9-.3-1.6-.9-2.1-.5-.6-1.2-.9-2.1-.9zm4-.7v7.3h-1v-1.3c-.4.5-.9.8-1.4 1.1-.5.2-1.1.4-1.7.4-1.1 0-2-.4-2.8-1.1-.8-.8-1.2-1.7-1.2-2.7 0-1.1.4-2 1.2-2.7.8-.8 1.7-1.1 2.8-1.1.6 0 1.2.1 1.7.4s1 .6 1.3 1.2v-1.4l1.1-.1zm1-2.8h1v10.2h-1V11zm4 0h1v4.2c.4-.5.8-.9 1.3-1.1.5-.3 1-.4 1.6-.4s1.1.1 1.5.4.8.7 1 1.1c.2.5.3 1.2.3 2.2v3.8h-1v-3.5c0-.8 0-1.4-.1-1.7-.1-.5-.3-.9-.7-1.1-.3-.2-.7-.4-1.3-.4s-1.1.2-1.6.6-.8.8-.9 1.4c-.1.4-.1 1-.1 2v2.7h-1V11zm11.5 3.6c-.8 0-1.5.3-2.1.9s-.9 1.3-.9 2.1c0 .5.1 1 .4 1.5s.6.8 1.1 1.1c.5.2 1 .4 1.5.4.6 0 1.1-.1 1.5-.4.5-.3.8-.6 1.1-1.1s.4-1 .4-1.5c0-.8-.3-1.5-.9-2.1-.5-.6-1.3-.9-2.1-.9zm0-.9c1.2 0 2.2.4 3 1.2.7.7 1.1 1.6 1.1 2.7s-.4 1.9-1.1 2.7c-.8.8-1.7 1.2-2.9 1.2s-2.2-.4-2.9-1.2c-.8-.8-1.1-1.7-1.1-2.7s.4-1.9 1.1-2.6c.6-.9 1.6-1.3 2.8-1.3zm5.9-2.6h1v2.7H90v.8h-1.6v6.6h-1v-6.6H86v-.8h1.4v-2.7zm9.5 5.7c-.1-.5-.3-.9-.6-1.2s-.6-.5-1-.7-.9-.3-1.3-.3c-.8 0-1.4.2-2 .7-.4.3-.7.8-.9 1.5h5.8zm0 2l.8.4c-.3.5-.6.9-1 1.2s-.8.6-1.2.7c-.5.2-1 .2-1.5.2-1.3 0-2.2-.4-3-1.2-.7-.8-1.1-1.7-1.1-2.7 0-.9.3-1.8.9-2.5.8-.9 1.8-1.4 3.1-1.4s2.4.5 3.2 1.4c.6.7.8 1.5.9 2.5h-7c0 .9.3 1.6.9 2.1s1.2.8 2.1.8c.4 0 .8-.1 1.1-.2.4-.1.7-.3.9-.5.3 0 .6-.3.9-.8zM99 11h1v10.2h-1V11zm8 3.7c-.5 0-1 .1-1.5.4s-.8.6-1.1 1.1-.4.9-.4 1.5c0 .5.1 1 .4 1.5s.6.8 1.1 1.1 1 .4 1.5.4 1-.1 1.5-.4.8-.6 1.1-1 .4-.9.4-1.5c0-.8-.3-1.5-.9-2.1-.6-.7-1.3-1-2.1-1zm3.9-.7v7.2h-1V20c-.4.5-.9.8-1.4 1.1-.5.2-1.1.4-1.7.4-1.1 0-2-.4-2.8-1.1s-1.1-1.6-1.1-2.7c0-1 .4-1.9 1.2-2.7.8-.7 1.7-1.1 2.8-1.1.6 0 1.2.1 1.7.4s.9.6 1.3 1.1V14h1zm1-2.8h1v10h-1v-10zm2.1 0h1v10h-1v-10zm1.8 2.8h1v7.2h-1V14zm.5-3c.2 0 .4.1.6.2.2.2.2.3.2.5s-.1.4-.2.5c-.2.2-.4.2-.6.2s-.4-.1-.6-.2c-.2-.2-.2-.3-.2-.5s.1-.4.2-.5c.2-.1.4-.2.6-.2zm5.3 3.7c-.5 0-1 .1-1.5.4s-.8.6-1.1 1.1-.4.9-.4 1.5c0 .5.1 1 .4 1.5s.6.8 1.1 1.1 1 .4 1.5.4 1-.1 1.5-.4.8-.6 1.1-1 .4-.9.4-1.5c0-.8-.3-1.5-.9-2.1-.5-.7-1.2-1-2.1-1zm3.9-.7v7.2h-1V20c-.4.5-.9.8-1.4 1.1-.5.2-1.1.4-1.7.4-1.1 0-2-.4-2.8-1.1s-1.1-1.6-1.1-2.7c0-1 .4-1.9 1.2-2.7.8-.7 1.7-1.1 2.8-1.1.6 0 1.2.1 1.7.4s.9.6 1.3 1.1V14h1zm1 0h1v1.3c.4-.5.8-.9 1.3-1.1.5-.3 1-.4 1.5-.4.6 0 1.1.1 1.5.4s.8.6 1 1.1.3 1.2.3 2.2v3.7h-1v-3.4c0-.8 0-1.4-.1-1.7-.1-.5-.3-.8-.6-1.1-.3-.2-.7-.4-1.2-.4-.6 0-1.1.2-1.6.6s-.8.8-.9 1.4c-.1.4-.1 1-.1 2v2.7h-1V14zm15.2 1.5l-.8.5c-.7-.8-1.6-1.3-2.7-1.3-.9 0-1.7.3-2.3.8-.6.6-.9 1.2-.9 2.1 0 .5.1 1 .4 1.5s.7.8 1.2 1.1 1 .4 1.6.4c1.1 0 2-.4 2.7-1.3l.8.5c-.4.5-.9.9-1.5 1.2s-1.3.4-2.1.4c-1.2 0-2.2-.4-3-1.1s-1.2-1.6-1.2-2.7c0-.7.2-1.3.5-2s.9-1.1 1.5-1.4 1.4-.5 2.2-.5c.5 0 1 .1 1.4.2.5.1.9.3 1.2.6.5.3.8.6 1 1zm7.6 1.4c-.1-.5-.3-.9-.6-1.2s-.6-.5-1-.7-.8-.3-1.3-.3c-.7 0-1.4.2-1.9.7-.4.3-.7.8-.9 1.5h5.7zm0 1.9l.8.4c-.3.5-.6.9-.9 1.2-.4.3-.8.5-1.2.7s-.9.2-1.5.2c-1.2 0-2.2-.4-2.9-1.2s-1-1.6-1-2.6c0-.9.3-1.7.9-2.5.7-.9 1.8-1.4 3-1.4 1.3 0 2.3.5 3.1 1.4.5.7.8 1.5.8 2.5h-6.8c0 .8.3 1.5.8 2.1s1.2.8 2 .8c.4 0 .8-.1 1.1-.2.4-.1.7-.3.9-.5.3-.1.6-.4.9-.9zm1.7-4.2l.1-.1c.1.2.2.2.3.2h.1l.1-.1v-.2c0-.1-.1-.1-.3-.2l-.2-.2c-.1-.1-.1-.1-.1-.2v-.2c0-.1.1-.1.1-.1h.4c.1 0 .1.1.2.2l-.1.1-.1-.1h-.1c-.1 0-.1 0-.1.1l-.1.1v.1s0 .1.1.1c0 0 .1.1.2.1.1.1.2.2.3.2 0 .1.1.1.1.2s0 .2-.1.3-.2.1-.3.1-.2 0-.2-.1c-.2-.1-.2-.2-.3-.3z"/><path d="M16.1 23.2c-1.3.5-2.7.8-4.1.8-6.6 0-12-5.4-12-12S5.4 0 12 0s12 5.4 12 12c0 3.6-1.6 6.9-4.1 9.1 0 0 .2-1.6-.5-3.4-.6-1.6-2-2.6-2.7-3v-.4c0-3.3-2.5-6-5.8-6.3.8-.6.7-2.2.7-2.2-1.2.2-2.1-.3-2.1-.3 0 1.8-1.3 2.7-1.3 2.7v.1c-2.5.9-4.3 3.2-4.3 6 0 3.5 2.9 6.4 6.4 6.4 2.4 0 4.6-1.4 5.6-3.4.4.3 1.4 1.1 1.4 2.5.1 1.6-.6 2.8-1.2 3.4zm-10-9c0-2.3 1.9-4.1 4.1-4.1s4.1 1.9 4.1 4.1-1.9 4.1-4.1 4.1-4.1-1.8-4.1-4.1z" fill="#ef3e42"/></svg>