<svg xmlns="http://www.w3.org/2000/svg" viewBox="0 0 576 364"><defs><style>.cls-1{fill:#f5f1ea;}</style></defs><title>CORP_Logo_Website</title><g id="Artwork"><path class="cls-1" d="M97.72,265.84h4.15v22.21H97.72v-9.69h-10v9.69H83.53V265.84h4.15v8.82h10Z"/><path class="cls-1" d="M121.72,288.61c-6.84,0-11.88-4.91-11.88-11.73,0-7.08,5.1-11.61,11.88-11.61s12,4.5,12,11.61C133.69,283.75,128.62,288.61,121.72,288.61Zm7.49-11.73c0-4.5-3.08-7.85-7.46-7.85s-7.44,3.46-7.44,7.85c0,4.56,3,7.91,7.44,7.91S129.21,281.44,129.21,276.88Z"/><path class="cls-1" d="M139.29,265.84h17.62v3.69h-6.72v18.52H146V269.53h-6.75Z"/><path class="cls-1" d="M169.77,269.53v5.19h10.1v3.7h-10.1v5.92H181v3.71H165.62V265.84h14.81v3.69Z"/><path class="cls-1" d="M194.74,284.34h9.36v3.71H190.6V265.84h4.14Z"/><path class="cls-1" d="M211.92,265.84h4.15v22.21h-4.15Z"/><path class="cls-1" d="M231.3,269.53v5.19h10.1v3.7H231.3v5.92h11.22v3.71H227.15V265.84H242v3.69Z"/><path class="cls-1" d="M263.11,278.24l5.9,9.81h-5l0-.06-5.06-9.27h-2.67v9.33h-4.15V265.84h7.73c4.3,0,8.24,1.74,8.24,6.42C268.09,275.37,266.22,277.51,263.11,278.24Zm.83-6c0-2.25-2.16-2.78-4.26-2.78h-3.41v5.8h3.08C261.37,275.22,263.94,274.9,263.94,272.2Z"/><path class="cls-1" d="M287.23,274.86c3,.72,7.13,1.88,7.13,6.62,0,5.09-4.26,7.13-8.7,7.13-3.11,0-6.91-.38-10-4.21l.05,0,3.44-2.4c.8,1,2.61,2.91,6.52,2.91,2.43,0,4.29-.86,4.29-3,0-1.39-.77-2.08-3.4-2.7l-3.86-.92c-3.08-.71-6.22-1.74-6.22-6.07s3.56-6.93,8.77-6.93a10.27,10.27,0,0,1,8.59,4.06l-3.37,2.52A6.22,6.22,0,0,0,285,269c-2.23,0-4.18,1-4.18,2.7,0,1.89,2.07,2.13,4.09,2.61Z"/><path class="cls-1" d="M327.81,274.86c3,.72,7.14,1.88,7.14,6.62,0,5.09-4.26,7.13-8.71,7.13-3.11,0-6.9-.38-10-4.21l.06,0,3.43-2.4c.8,1,2.61,2.91,6.52,2.91,2.43,0,4.3-.86,4.3-3,0-1.39-.77-2.08-3.41-2.7l-3.85-.92c-3.08-.71-6.22-1.74-6.22-6.07s3.55-6.93,8.77-6.93a10.27,10.27,0,0,1,8.59,4.06L331,271.85a6.19,6.19,0,0,0-5.42-2.82c-2.22,0-4.18,1-4.18,2.7,0,1.89,2.08,2.13,4.09,2.61Z"/><path class="cls-1" d="M344,265.84h4.15v22.21H344Z"/><path class="cls-1" d="M362.15,271.55v16.5H358V265.84h5.39l10.1,16v-16h4.12v22.21h-5.13Z"/><path class="cls-1" d="M405.39,282.1a10,10,0,0,1-9.53,6.51c-5.9,0-10.43-4.29-10.43-11.73s4.89-11.61,10.58-11.61a8.75,8.75,0,0,1,8.91,6.25l-4,1.36a4.56,4.56,0,0,0-4.77-3.76c-3.64,0-6.16,2.93-6.16,7.7,0,5.07,2.67,7.94,6.19,7.94,3.29,0,4.68-2.72,5.25-4Z"/><path class="cls-1" d="M418,269.53v5.19h10.11v3.7H418v5.92h11.23v3.71H413.81V265.84h14.81v3.69Z"/><path class="cls-1" d="M456.73,270.37l-4.44,2.75-2.13-3.23,6.57-4.05h4.15v22.21h-4.15Z"/><path class="cls-1" d="M477.08,288.61c-4.62,0-8-2.39-8-6.4a5.64,5.64,0,0,1,4-5.65,5.47,5.47,0,0,1-3.31-5.31c0-3.64,3.17-6,7.31-6s7.41,2.31,7.41,6a5.56,5.56,0,0,1-3.5,5.31,5.76,5.76,0,0,1,4.21,5.65C485.2,286.24,481.76,288.61,477.08,288.61Zm3.94-6.69a3.9,3.9,0,0,0-7.79,0c0,2,1.57,3.32,3.88,3.32S481,283.9,481,281.92Zm-.71-10.22a3.19,3.19,0,0,0-6.37,0,3.09,3.09,0,0,0,3.17,3.31A3.14,3.14,0,0,0,480.31,271.7Z"/><path class="cls-1" d="M500,280.08c-5,.74-8.23-2.9-8.23-7.2,0-4.92,3.73-7.61,8.11-7.61,4.56,0,7.91,2.73,7.91,7.61,0,3.08-1.6,5.13-4,8.65l-4.42,6.52h-5.06Zm-.18-3a3.93,3.93,0,0,0,3.92-4.21,3.88,3.88,0,0,0-3.88-4.2,4,4,0,0,0-3.92,4.2C496,275.34,497.52,277.06,499.83,277.06Z"/><path class="cls-1" d="M513.85,265.84h15.4v3.1l-8.56,19.11h-4.44l8.68-18.52H513.85Z"/><path class="cls-1" d="M370.11,117.46c-4,0-9.63,6.35-9.63,9.39,0,1.51,1.11,2.17,2.47,2.17,4.1,0,9.67-5.51,9.67-9.14A2.43,2.43,0,0,0,370.11,117.46Z"/><path class="cls-1" d="M540.08,117.46c-4,0-9.64,6.35-9.64,9.39,0,1.51,1.12,2.17,2.48,2.17,4.1,0,9.68-5.51,9.68-9.14A2.44,2.44,0,0,0,540.08,117.46Z"/><path class="cls-1" d="M263.29,75.39c-36.17,0-92.82,49-123.52,70.22,8.6-17.33,16.75-34,25.48-46.71,3.88-5.63,2.79-7.26,1.13-7.26S158.54,94,134.81,97c-23.36,3-35.95,15.62-35.95,30.34,0,7,3,12.72,6.46,15.4,1.21,1,2.37.39,1.06-1.49-1.72-2.47-4.13-7.07-4.13-11.58,0-9.63,6.42-18.53,17.66-22.72,9.61-3.57,18.22-3.61,32.43-5.7C132.27,134.94,99.13,230.74,55.8,230.74A31.18,31.18,0,0,1,28,214.45c-1.35-2.43-2-3.39-4.17-3.39A3.58,3.58,0,0,0,20,214.7c0,10.24,20.16,19,34.82,19,39.29,0,62.6-43.23,83.1-84.41,11.86,32.25,23.3,78.58,61.73,78.58,15.61,0,31.56-11.52,38.73-20.73,1.82-2.33,1.17-3.73-.82-1.64-6.11,6.4-20.21,17.55-35.66,17.55-22.64,0-38-21.46-53.6-75.58,25.28-20,86.14-67.87,115.54-67.87,6.71,0,11.44,1.9,11.44,5,0,3.59-4.11,6.86-4.11,7.76a1.8,1.8,0,0,0,2,1.58c3.77,0,7.3-4.43,7.3-8.8C280.45,79.6,272.58,75.39,263.29,75.39Z"/><path class="cls-1" d="M555.3,150.58c-.47,0-1,.53-1.69,1.6-4.5,7.29-22.58,27.4-33,27.4-2.75,0-4.19-2.6-4.19-5.44,0-10,10.95-22.61,10.95-26,0-.95-1.11-1.59-2.33-1.59-4.18,0-5.45.69-8.33,4.8-5.7,8.12-15,27.93-24.7,27.93-7.15,0-11.55-13.57-12.65-25.38,3.28-3,19.16-13.86,23.68-15.61,2.32-.91,1.16-4.57-1.43-4.57-1.79,0-23.7,15.91-29.61,20.13,10.19-21.18,24.21-49.54,31.91-62.09,2.24-3.65,8.56-9.79,8.56-13.21,0-1.13-.48-1.73-1.5-1.73-7.12,0-19.66,23.74-51.85,46.33-3.89,2.72-14.91,9.45-15.62,18.08-8.78.18-14.47,4.64-16.17,10-6.81,15.13-20.25,27.52-26.77,27.52-1.49,0-1.86-1.26-1.86-2.46,0-6,10-19.87,10-25,0-3-2.22-4.76-5.43-4.76-6.94,0-12.65,4.33-19.95,11.41.71-2,3.07-7.73,3.57-9,.79-1.94-.83-2.43-2.05-2.43-3.17,0-6.26,1.87-7,4.05-7.52,12-23.24,28.3-29,28.3-1.16,0-1.73-1-1.73-2.81,0-5.67,11.92-25,12.9-27.14.9-2-1-2.4-2-2.4a8.35,8.35,0,0,0-6.73,3.35c-.21.29-.47.68-.77,1.13-7.12,9.57-22.32,21.8-34.95,27,8.65-6.51,16.17-16.16,16.17-24.2,0-4.67-3.59-7.33-8.37-7.33-5.32,0-11.09,2.69-16.26,6.71,3.33-6.36,7.09-12.6,7.62-13.78.9-2-1-2.4-2-2.4-2.3,0-6.18,1.4-7.66,4.11-4.1,7.51-9.46,18.92-12.8,26.32-5.4,7.48-13.55,11.23-16.5,11.23-1.15,0-1.79-.85-1.79-2.47,0-5.9,10.07-19.92,10.07-25,0-3-2.32-4.74-5.23-4.74-6.63,0-11.64,3.69-18.9,10.68,1.73-6.61-.51-10.68-5.55-10.68-6.86,0-13.73,6-19.38,13,1.16-3.2,2.09-5.16,2.09-8.3s-1.89-4.66-4.61-4.66c-15.27,0-26,34.08-43.72,34.08-4.92,0-7.23-3.42-7.23-7.66a17.62,17.62,0,0,1,.28-3.07c11.65-1.28,29.84-12,29.84-22.14,0-3.46-3.1-5.27-7-5.27-14.4,0-32.05,18.36-32.05,31.06,0,7.87,5.52,12.63,12.42,12.63,13.14,0,23.95-12.17,31.67-22.55,4.79-6.42,8.87-10.07,10.23-10.07.35,0,.6.18.6.81,0,4-11,26.16-11,28.73,0,1.38,1.34,1.38,2.57,1.38,5.08,0,6.72-2.67,9.76-9,2.92-6,14.84-23.5,21.31-23.5,1.26,0,1.69.86,1.69,2.08,0,6.47-11.72,26-11.72,29,0,1.38,1.34,1.38,2.57,1.38,6.13,0,7.72-4.82,12.34-14.28S269.86,152,273.9,152c.93,0,1.25.35,1.25,1.24,0,3.53-10.57,19.46-10.57,25.67,0,3.61,2.51,5.58,6.39,5.58,4.15,0,11.15-2.45,17.49-8.33-12.78,29.49-19.54,49.34-46.59,63.22-.77.4-.78,1,.21,1a18.64,18.64,0,0,0,6.37-2.1c25.22-12.38,35.06-30.18,47.12-55.84,8.42-17.9,16.29-31.66,24.36-31.66,2.26,0,3,2,3,3.88,0,5-7.62,16.11-15.08,21.66-4.4,3.27-6.78,4.27-6.78,6,0,1.29,1.44,2.09,2.86,2.09,11.12,0,26.75-8.84,38.89-20.16-2.63,5.19-4.81,10.57-4.81,14,0,4.26,3.11,6.12,6.53,6.12,8.43,0,19.57-10.7,28.93-21.92-4.18,9.46-9.24,18.38-9.24,20.53,0,1.38,1.35,1.38,2.58,1.38,6.13,0,7.72-4.82,12.34-14.28S394.38,152,398.43,152c.92,0,1.47.35,1.47,1.24,0,3.53-10.58,19.46-10.58,25.67,0,3.61,2.52,5.58,6.4,5.58,11,0,24.3-12.54,32.07-25.9,2.41,5.46,8.55,10.92,8.55,16a5.88,5.88,0,0,1-6,5.85c-6.21,0-6.83-5.14-9.66-5.14-2.43,0-3.89,1.41-4,2.81-.25,3.28,6.55,6.31,11.19,6.31,7.77,0,16-5.74,16-13.92s-9.43-13.8-9.43-20c0-2.92,2.15-5.11,6.24-5.11a10.1,10.1,0,0,1,5,1.62,10.56,10.56,0,0,0,7.38,2.73,15.68,15.68,0,0,0,9.44-4c1.35-1.44.6-2.58-.7-1.86a12.35,12.35,0,0,1-5.5,1.12c-3.22,0-6-1.84-6-5.83,0-9.32,19.55-17,37.26-35-11.15,21.07-29.6,60-34.85,71-1.79,3.78-3.19,6.67-3.19,7.74,0,1.4,1,1.49,2.54,1.49,3.38,0,6.09-1.1,8.57-6.49,1.61-3.49,5.47-11.72,10.36-21.9,1.82,17.09,7.91,28.39,18.2,28.39,7,0,12.9-4.54,18.56-12.59-.17,8,3.82,12.58,11.18,12.58,15.16,0,37.1-24.94,37.1-33.22A.67.67,0,0,0,555.3,150.58ZM201,147.35c1.32,0,2.12.7,2.12,2.43,0,4.6-11.43,15.13-20.58,17.17C185.86,156.58,196.58,147.35,201,147.35Z"/></g></svg>