<svg xmlns="http://www.w3.org/2000/svg" viewBox="74 -674 226.9 233.7"><path d="M179.8-651.3v-16.3h-5.9v-2.1a14.979 14.979 0 0 0 2.2-.2 4.793 4.793 0 0 0 2-.7 4.708 4.708 0 0 0 1.5-1.3 4.851 4.851 0 0 0 .8-2.1h2.1v22.7zm8.6-17.9a6.773 6.773 0 0 1 1.4-2.5 6.138 6.138 0 0 1 2.4-1.7 7.943 7.943 0 0 1 3.2-.6 8.627 8.627 0 0 1 2.8.4 8.36 8.36 0 0 1 2.3 1.2 6.183 6.183 0 0 1 1.5 2 6.088 6.088 0 0 1 .6 2.8 7.635 7.635 0 0 1-.5 2.7 7.194 7.194 0 0 1-1.2 2.1 6.9 6.9 0 0 1-1.8 1.6 24.258 24.258 0 0 1-2 1.4 23.924 23.924 0 0 0-2.1 1.3c-.7.5-1.3.9-1.9 1.3a10.607 10.607 0 0 0-1.5 1.5 4.065 4.065 0 0 0-.8 1.9h11.6v2.4h-14.8a10.742 10.742 0 0 1 .7-3.4 10.1 10.1 0 0 1 1.4-2.5 12.1 12.1 0 0 1 2-1.9c.7-.5 1.5-1 2.3-1.5 1-.6 1.8-1.1 2.5-1.6a14.283 14.283 0 0 0 1.8-1.5 6.191 6.191 0 0 0 1.1-1.7 4.638 4.638 0 0 0 .4-2.1 3.287 3.287 0 0 0-.4-1.7 3.805 3.805 0 0 0-.9-1.3 3.924 3.924 0 0 0-1.4-.8 4.671 4.671 0 0 0-1.7-.3 3.939 3.939 0 0 0-2 .5 4.357 4.357 0 0 0-1.4 1.3 4.942 4.942 0 0 0-.8 1.8 6.8 6.8 0 0 0-.2 2h-2.7a5.46 5.46 0 0 1 .1-3.1zm52.4 33.4v-16.3h-5.9v-2.2a14.979 14.979 0 0 0 2.2-.2 4.793 4.793 0 0 0 2-.7 4.708 4.708 0 0 0 1.5-1.3 4.851 4.851 0 0 0 .8-2.1h2.1v22.7h-2.7zm32.4 21a6.773 6.773 0 0 1 1.4-2.5 6.138 6.138 0 0 1 2.4-1.7 7.943 7.943 0 0 1 3.2-.6 8.627 8.627 0 0 1 2.8.4 8.36 8.36 0 0 1 2.3 1.2 6.183 6.183 0 0 1 1.5 2 6.088 6.088 0 0 1 .6 2.8 7.635 7.635 0 0 1-.5 2.7 7.194 7.194 0 0 1-1.2 2.1 6.9 6.9 0 0 1-1.8 1.6 24.259 24.259 0 0 1-2 1.4 23.927 23.927 0 0 0-2.1 1.3c-.7.5-1.3.9-1.9 1.3a10.606 10.606 0 0 0-1.5 1.5 4.065 4.065 0 0 0-.8 1.9h11.6v2.4h-14.9a10.742 10.742 0 0 1 .7-3.4 10.1 10.1 0 0 1 1.4-2.5 12.1 12.1 0 0 1 2-1.9c.7-.5 1.5-1 2.3-1.5 1-.6 1.8-1.1 2.5-1.6a14.283 14.283 0 0 0 1.8-1.5 6.191 6.191 0 0 0 1.1-1.7 4.638 4.638 0 0 0 .4-2.1 3.287 3.287 0 0 0-.4-1.7 3.805 3.805 0 0 0-.9-1.3 3.924 3.924 0 0 0-1.4-.8 4.671 4.671 0 0 0-1.7-.3 3.939 3.939 0 0 0-2 .5 4.357 4.357 0 0 0-1.4 1.3 4.942 4.942 0 0 0-.8 1.8 6.8 6.8 0 0 0-.2 2H273a6.458 6.458 0 0 1 .2-3.1zm18.7 55.9h.9a7.772 7.772 0 0 0 1.6-.2 3.694 3.694 0 0 0 1.4-.7 2.73 2.73 0 0 0 .9-1.2 4.193 4.193 0 0 0 .4-1.6 3.16 3.16 0 0 0-1.2-2.7 4.563 4.563 0 0 0-2.9-.9 3.807 3.807 0 0 0-1.9.4 3.482 3.482 0 0 0-1.3 1.1 4.02 4.02 0 0 0-.8 1.6 5.822 5.822 0 0 0-.3 1.9H286a9.427 9.427 0 0 1 .5-3 7.277 7.277 0 0 1 1.3-2.3 7.123 7.123 0 0 1 2.2-1.5 7.286 7.286 0 0 1 3-.5 7.664 7.664 0 0 1 2.7.4 7.56 7.56 0 0 1 2.2 1.1 5.754 5.754 0 0 1 1.5 1.9 5.923 5.923 0 0 1 .5 2.7 4.388 4.388 0 0 1-.9 2.7 5.485 5.485 0 0 1-2.2 1.8v.1a4.862 4.862 0 0 1 3.1 2 6.092 6.092 0 0 1 1 3.6 7.306 7.306 0 0 1-.6 3 6.2 6.2 0 0 1-1.7 2.2 6.61 6.61 0 0 1-2.5 1.3 10.323 10.323 0 0 1-3 .4 9.587 9.587 0 0 1-3.1-.5 7.217 7.217 0 0 1-2.4-1.4 5.131 5.131 0 0 1-1.5-2.3 7.774 7.774 0 0 1-.5-3.1h2.7a5.27 5.27 0 0 0 1.3 3.6 4.591 4.591 0 0 0 3.6 1.4 5.822 5.822 0 0 0 1.9-.3 5.071 5.071 0 0 0 1.6-.9 3.815 3.815 0 0 0 1.1-1.4 3.922 3.922 0 0 0 .4-1.8 4.058 4.058 0 0 0-.4-1.9 5.019 5.019 0 0 0-1-1.4 2.751 2.751 0 0 0-1.5-.8 10.793 10.793 0 0 0-1.9-.3 8.083 8.083 0 0 0-1.6.1v-2.7c-.1.1 0 .1.1.1zm-3.4 58.7v2.4h-3.1v5.3h-2.6v-5.3h-10v-2.6l10.3-14.8h2.2v15h3.2zm-5.6-11.1l-7.6 11.1h7.6zM238-474.6l-1.2 6.5.1.1a3.47 3.47 0 0 1 1.9-1.2 6.562 6.562 0 0 1 2.3-.4 8.21 8.21 0 0 1 2.8.5 5.131 5.131 0 0 1 2.3 1.5 7.76 7.76 0 0 1 1.6 2.4 9.008 9.008 0 0 1 .1 6.2 6.08 6.08 0 0 1-1.5 2.4 7.385 7.385 0 0 1-2.5 1.7 9.146 9.146 0 0 1-3.5.6 8.628 8.628 0 0 1-2.8-.4 8.359 8.359 0 0 1-2.3-1.2 5.264 5.264 0 0 1-1.6-2 6.088 6.088 0 0 1-.6-2.8h2.7a4.193 4.193 0 0 0 .4 1.6 4.125 4.125 0 0 0 1 1.3 3.765 3.765 0 0 0 1.5.9 5.822 5.822 0 0 0 1.9.3 5.23 5.23 0 0 0 1.8-.3 3.956 3.956 0 0 0 1.5-1 4.043 4.043 0 0 0 1-1.7 6.051 6.051 0 0 0 .4-2.4 5.223 5.223 0 0 0-.4-2.1 4.882 4.882 0 0 0-1-1.6 6.446 6.446 0 0 0-1.6-1.1 4.638 4.638 0 0 0-2.1-.4 4.751 4.751 0 0 0-2.4.6 5.48 5.48 0 0 0-1.8 1.6l-2.3-.1 2.1-11.8H247v2.4h-9zm-47.3 14.7a3.738 3.738 0 0 0-2.6-.9 4.655 4.655 0 0 0-2.8.8 4.74 4.74 0 0 0-1.6 2.1 11.465 11.465 0 0 0-.8 2.8c-.1 1-.2 1.9-.3 2.8l.1.1a5.894 5.894 0 0 1 2.4-2.3 6.711 6.711 0 0 1 3.3-.7 6.527 6.527 0 0 1 2.9.6 5.962 5.962 0 0 1 2.2 1.6 8.842 8.842 0 0 1 1.4 2.3 9.291 9.291 0 0 1 .5 2.9 8.239 8.239 0 0 1-.4 2.6 6.983 6.983 0 0 1-1.3 2.4 8.362 8.362 0 0 1-2.3 1.8 7.983 7.983 0 0 1-3.6.7 7.336 7.336 0 0 1-4.1-1 7.413 7.413 0 0 1-2.4-2.6 10.242 10.242 0 0 1-1.1-3.5 24.039 24.039 0 0 1-.3-3.7 21.535 21.535 0 0 1 .4-4.5 11.261 11.261 0 0 1 1.4-3.9 7.464 7.464 0 0 1 2.6-2.7 7.208 7.208 0 0 1 4-1 5.836 5.836 0 0 1 6.4 5.8H192a4.04 4.04 0 0 0-1.3-2.5zm-4.9 7.5a4.177 4.177 0 0 0-1.5 1.1 5.071 5.071 0 0 0-.9 1.6 6.817 6.817 0 0 0 0 4 4.171 4.171 0 0 0 .9 1.6 5.826 5.826 0 0 0 1.5 1.1 5.2 5.2 0 0 0 4 0 3.815 3.815 0 0 0 1.4-1.1 5.071 5.071 0 0 0 .9-1.6 5.822 5.822 0 0 0 .3-1.9 6.448 6.448 0 0 0-.3-2 5.978 5.978 0 0 0-.8-1.6 4.863 4.863 0 0 0-1.4-1.1 3.966 3.966 0 0 0-2-.4 4.448 4.448 0 0 0-2.1.3zm-46.6-18.2a39.762 39.762 0 0 0-2.7 5 35.753 35.753 0 0 0-1.9 5.5 27.4 27.4 0 0 0-.9 5.5h-3a26.18 26.18 0 0 1 .9-5.6 29.217 29.217 0 0 1 1.9-5.2 45.31 45.31 0 0 1 2.7-4.8 26.907 26.907 0 0 1 3.3-4.1h-11.7v-2.7h14.7v2.3a22.769 22.769 0 0 0-3.3 4.1zm-49.7-41.3a6.549 6.549 0 0 1 1.5-1.8 5.291 5.291 0 0 1 2.1-1.1 6.9 6.9 0 0 1 2.5-.4 10.233 10.233 0 0 1 3.2.5 5.387 5.387 0 0 1 2.1 1.3 6.15 6.15 0 0 1 1.2 1.9 5.222 5.222 0 0 1 .4 2.1 5.376 5.376 0 0 1-.8 2.8 4.845 4.845 0 0 1-2.3 1.9 4.864 4.864 0 0 1 3 2.1 6.907 6.907 0 0 1 1 3.6 6.527 6.527 0 0 1-.6 2.9 5.963 5.963 0 0 1-1.6 2.2 6.983 6.983 0 0 1-2.4 1.3 9.246 9.246 0 0 1-2.9.4 9.476 9.476 0 0 1-3-.4 6.176 6.176 0 0 1-2.4-1.3 6.752 6.752 0 0 1-2.2-5.2 5.986 5.986 0 0 1 1-3.5 6.434 6.434 0 0 1 2.9-2.2 4.754 4.754 0 0 1-2.3-1.9 4.9 4.9 0 0 1-.9-2.8 3.874 3.874 0 0 1 .5-2.4zm2.9 16.2a5.13 5.13 0 0 0 3.5 1.2 5.822 5.822 0 0 0 1.9-.3 3.766 3.766 0 0 0 1.5-.9 7.1 7.1 0 0 0 1-1.4 3.426 3.426 0 0 0 .3-1.8 3.287 3.287 0 0 0-.4-1.7 7.1 7.1 0 0 0-1-1.4 3.766 3.766 0 0 0-1.5-.9 5.663 5.663 0 0 0-1.8-.3 5.822 5.822 0 0 0-1.9.3 3.766 3.766 0 0 0-1.5.9 3.587 3.587 0 0 0-1 1.4 4.776 4.776 0 0 0-.4 1.8 3.441 3.441 0 0 0 1.3 3.1zm-.3-12a2.445 2.445 0 0 0 .9 1.1 5.387 5.387 0 0 0 1.3.7 7.772 7.772 0 0 0 1.6.2 3.62 3.62 0 0 0 2.7-1 3.387 3.387 0 0 0 1.1-2.7 3.174 3.174 0 0 0-1.1-2.6 4 4 0 0 0-2.7-.9 7.72 7.72 0 0 0-1.5.2 3.293 3.293 0 0 0-1.3.7 2.836 2.836 0 0 0-.8 1.1 3.339 3.339 0 0 0-.3 1.5 2.415 2.415 0 0 0 .1 1.7zm-13.3-41.2a4.47 4.47 0 0 0 2.8.9 3.859 3.859 0 0 0 3.7-2.2 15.1 15.1 0 0 0 1.4-6.6l-.1-.1a5.413 5.413 0 0 1-2.2 2.3 5.533 5.533 0 0 1-3.1.8 7.455 7.455 0 0 1-3.1-.6 7.326 7.326 0 0 1-2.3-1.6 7.217 7.217 0 0 1-1.4-2.4 10.069 10.069 0 0 1-.5-3.1 9.427 9.427 0 0 1 .5-3 7.635 7.635 0 0 1 1.5-2.3 6.08 6.08 0 0 1 2.4-1.5 7.286 7.286 0 0 1 3-.5 9.427 9.427 0 0 1 3 .5 5.887 5.887 0 0 1 2.5 1.7 8.532 8.532 0 0 1 1.7 3.3 19.839 19.839 0 0 1 .6 5.3c0 3.9-.6 6.9-1.9 9a6.392 6.392 0 0 1-6 3.2 7.716 7.716 0 0 1-4.7-1.4 5.647 5.647 0 0 1-2.1-4.4h2.7a5.885 5.885 0 0 0 1.6 2.7zm7.2-14.2a4.374 4.374 0 0 0-2.4-2.7 4.211 4.211 0 0 0-2-.4 4.638 4.638 0 0 0-2.1.4 4.071 4.071 0 0 0-1.4 1.2 5.306 5.306 0 0 0-.8 1.7 6.478 6.478 0 0 0-.2 2 5.663 5.663 0 0 0 .3 1.8 3.766 3.766 0 0 0 .9 1.5 7.551 7.551 0 0 0 1.4 1.1 3.425 3.425 0 0 0 1.8.4 4.058 4.058 0 0 0 1.9-.4 4.177 4.177 0 0 0 1.5-1.1 5.071 5.071 0 0 0 .9-1.6 5.822 5.822 0 0 0 .3-1.9 3.378 3.378 0 0 0-.1-2zm1.9-34.9v-16.2h-5.8v-2.2a14.979 14.979 0 0 0 2.2-.2 4.793 4.793 0 0 0 2-.7 4.708 4.708 0 0 0 1.5-1.3 4.851 4.851 0 0 0 .8-2.1h2.1v22.7h-2.8zm8.3-13.7a10.9 10.9 0 0 1 .3-2.6 13.7 13.7 0 0 1 .7-2.4 6.9 6.9 0 0 1 1.3-2 7.706 7.706 0 0 1 2.1-1.4 7.008 7.008 0 0 1 3-.5 8.532 8.532 0 0 1 3 .5 5.957 5.957 0 0 1 2.1 1.4 5.328 5.328 0 0 1 1.3 2 10.884 10.884 0 0 1 .7 2.4 11.529 11.529 0 0 1 .3 2.6c0 .9.1 1.8.1 2.6a23.484 23.484 0 0 1-.1 2.6 20.614 20.614 0 0 1-.3 2.6 13.7 13.7 0 0 1-.7 2.4 8.577 8.577 0 0 1-1.3 2 6.432 6.432 0 0 1-2.1 1.4 7.008 7.008 0 0 1-3 .5 8.532 8.532 0 0 1-3-.5 5.957 5.957 0 0 1-2.1-1.4 5.328 5.328 0 0 1-1.3-2 10.884 10.884 0 0 1-.7-2.4 11.529 11.529 0 0 1-.3-2.6c0-.9-.1-1.8-.1-2.6a21.75 21.75 0 0 0 .1-2.6zm2.9 5.4a14.463 14.463 0 0 0 .5 3 7.217 7.217 0 0 0 1.4 2.4 3.337 3.337 0 0 0 2.7 1 3.474 3.474 0 0 0 2.7-1 5.273 5.273 0 0 0 1.4-2.4 9.427 9.427 0 0 0 .5-3c.1-1.1.1-2 .1-2.9v-1.8a13.552 13.552 0 0 0-.2-2 14.159 14.159 0 0 0-.4-2 5.306 5.306 0 0 0-.8-1.7 4.894 4.894 0 0 0-1.3-1.2 3.966 3.966 0 0 0-2-.4 4.211 4.211 0 0 0-2 .4 3.745 3.745 0 0 0-1.3 1.2 4.465 4.465 0 0 0-.8 1.7 11.8 11.8 0 0 0-.4 2c-.1.7-.1 1.3-.2 2v1.8a27.15 27.15 0 0 1 .1 2.9zm28.7-29.5v-16.3h-5.9v-2.2a14.979 14.979 0 0 0 2.2-.2 4.793 4.793 0 0 0 2-.7 4.708 4.708 0 0 0 1.5-1.3 4.851 4.851 0 0 0 .8-2.1h2.1v22.7h-2.7zm15.6 0v-16.3h-5.9v-2.2a14.979 14.979 0 0 0 2.2-.2 4.793 4.793 0 0 0 2-.7 4.708 4.708 0 0 0 1.5-1.3 4.851 4.851 0 0 0 .8-2.1h2.1v22.7h-2.7z"/></svg>